<svg width="18" height="18" viewBox="0 0 18 18" fill="none" xmlns="http://www.w3.org/2000/svg">
<path d="M17.0683 1.76033L10.1933 16.7603C10.1357 16.886 10.0382 16.989 9.91588 17.0533C9.79356 17.1177 9.65339 17.1396 9.51726 17.1158C9.38114 17.092 9.25675 17.0237 9.16355 16.9217C9.07034 16.8197 9.01358 16.6896 9.00214 16.5519L8.42089 9.57896L1.44795 8.99771C1.31024 8.98627 1.18019 8.92951 1.07816 8.8363C0.976134 8.7431 0.907871 8.61871 0.884051 8.48258C0.86023 8.34646 0.882196 8.20628 0.946512 8.08397C1.01083 7.96166 1.11387 7.86411 1.23952 7.80658L16.2395 0.93158C16.3555 0.878438 16.4849 0.862048 16.6105 0.884614C16.736 0.907179 16.8516 0.967618 16.9418 1.05781C17.032 1.14801 17.0925 1.26365 17.115 1.38919C17.1376 1.51474 17.1212 1.64418 17.0681 1.76014L17.0683 1.76033Z" fill="#080809"/>
</svg>
